<!-- Generated by IcoMoon.io -->
<svg version="1.1" xmlns="http://www.w3.org/2000/svg" width="213" height="24" viewBox="0 0 285 32">
<title>logo</title>
<path fill="#111" d="M7.885 24.288c-0.912 0-1.8-0.088-2.664-0.264-0.848-0.16-1.624-0.384-2.328-0.672-0.688-0.288-1.272-0.6-1.752-0.936l1.584-3c0.528 0.368 1.088 0.688 1.68 0.96 0.608 0.256 1.24 0.456 1.896 0.6 0.656 0.128 1.312 0.192 1.968 0.192 0.72 0 1.336-0.080 1.848-0.24 0.528-0.16 0.928-0.384 1.2-0.672 0.288-0.288 0.432-0.64 0.432-1.056 0-0.384-0.152-0.696-0.456-0.936s-0.704-0.44-1.2-0.6c-0.48-0.176-1.016-0.344-1.608-0.504s-1.192-0.344-1.8-0.552c-0.592-0.224-1.136-0.496-1.632-0.816-0.48-0.336-0.872-0.76-1.176-1.272s-0.456-1.152-0.456-1.92c0-1.152 0.312-2.152 0.936-3 0.64-0.848 1.536-1.504 2.688-1.968 1.152-0.48 2.504-0.72 4.056-0.72 1.136 0 2.208 0.128 3.216 0.384 1.008 0.24 1.872 0.592 2.592 1.056l-1.464 2.976c-0.64-0.432-1.352-0.752-2.136-0.96-0.784-0.224-1.592-0.336-2.424-0.336-0.752 0-1.4 0.088-1.944 0.264-0.528 0.176-0.936 0.424-1.224 0.744-0.272 0.304-0.408 0.656-0.408 1.056s0.144 0.728 0.432 0.984c0.304 0.24 0.704 0.448 1.2 0.624 0.496 0.16 1.040 0.32 1.632 0.48s1.184 0.344 1.776 0.552c0.592 0.208 1.136 0.472 1.632 0.792s0.896 0.728 1.2 1.224c0.304 0.48 0.456 1.088 0.456 1.824 0 1.152-0.32 2.16-0.96 3.024-0.64 0.848-1.544 1.512-2.712 1.992-1.152 0.464-2.512 0.696-4.080 0.696zM16.614 24l3.36-16.8h3.912l-3.36 16.8h-3.912zM23.769 24l3.36-16.8h3.168l4.776 11.904-1.68-0.024 9.312-11.88h3.336l-3.336 16.8h-3.648l2.232-11.256h0.744l-7.416 9.48h-1.728l-3.96-9.504 0.72 0.072-2.232 11.208h-3.648zM45.971 24l3.36-16.8h6.792c2.096 0 3.712 0.464 4.848 1.392 1.152 0.912 1.728 2.192 1.728 3.84 0 1.408-0.328 2.64-0.984 3.696-0.656 1.040-1.6 1.84-2.832 2.4-1.216 0.56-2.664 0.84-4.344 0.84h-5.448l2.064-1.776-1.272 6.408h-3.912zM51.059 18.048l-1.368-1.848h5.016c1.28 0 2.272-0.288 2.976-0.864 0.72-0.592 1.080-1.448 1.080-2.568 0-0.816-0.272-1.416-0.816-1.8-0.544-0.4-1.312-0.6-2.304-0.6h-4.728l2.064-1.896-1.92 9.576zM62.595 24l3.36-16.8h3.912l-2.736 13.632h8.424l-0.648 3.168h-12.312zM78.801 24l1.368-6.912 0.432 2.448-4.944-12.336h3.888l3.768 9.432-2.352 0.024 7.608-9.456h4.008l-9.84 12.36 1.32-2.472-1.368 6.912h-3.888zM105.536 24.288c-1.296 0-2.504-0.208-3.624-0.624-1.104-0.432-2.064-1.040-2.88-1.824s-1.456-1.704-1.92-2.76c-0.448-1.056-0.672-2.216-0.672-3.48s0.224-2.424 0.672-3.48c0.464-1.056 1.104-1.976 1.92-2.76 0.832-0.784 1.8-1.384 2.904-1.8 1.104-0.432 2.312-0.648 3.624-0.648 1.456 0 2.768 0.256 3.936 0.768 1.184 0.496 2.176 1.232 2.976 2.208l-2.496 2.304c-0.576-0.656-1.216-1.144-1.92-1.464-0.704-0.336-1.472-0.504-2.304-0.504-0.784 0-1.504 0.128-2.16 0.384s-1.224 0.624-1.704 1.104c-0.48 0.48-0.856 1.048-1.128 1.704-0.256 0.656-0.384 1.384-0.384 2.184s0.128 1.528 0.384 2.184c0.272 0.656 0.648 1.224 1.128 1.704s1.048 0.848 1.704 1.104c0.656 0.256 1.376 0.384 2.16 0.384 0.832 0 1.6-0.16 2.304-0.48 0.704-0.336 1.344-0.84 1.92-1.512l2.496 2.304c-0.8 0.976-1.792 1.72-2.976 2.232-1.168 0.512-2.488 0.768-3.96 0.768zM125.898 7.2h3.888v16.8h-3.888v-16.8zM118.266 24h-3.888v-16.8h3.888v16.8zM126.186 17.112h-8.208v-3.288h8.208v3.288zM141.2 24.288c-1.328 0-2.56-0.216-3.696-0.648-1.12-0.432-2.096-1.040-2.928-1.824-0.816-0.784-1.455-1.704-1.919-2.76-0.448-1.056-0.672-2.208-0.672-3.456s0.224-2.4 0.672-3.456c0.464-1.056 1.111-1.976 1.943-2.76s1.808-1.392 2.928-1.824c1.12-0.432 2.336-0.648 3.648-0.648 1.328 0 2.544 0.216 3.648 0.648 1.12 0.432 2.088 1.040 2.904 1.824 0.832 0.784 1.48 1.704 1.944 2.76 0.464 1.040 0.696 2.192 0.696 3.456 0 1.248-0.232 2.408-0.696 3.48-0.464 1.056-1.112 1.976-1.944 2.76-0.816 0.768-1.784 1.368-2.904 1.8-1.104 0.432-2.312 0.648-3.624 0.648zM141.176 20.976c0.752 0 1.44-0.128 2.064-0.384 0.64-0.256 1.2-0.624 1.68-1.104s0.848-1.048 1.104-1.704c0.272-0.656 0.408-1.384 0.408-2.184s-0.136-1.528-0.408-2.184c-0.256-0.656-0.624-1.224-1.104-1.704-0.464-0.48-1.016-0.848-1.656-1.104s-1.336-0.384-2.088-0.384c-0.752 0-1.448 0.128-2.088 0.384-0.624 0.256-1.176 0.624-1.656 1.104s-0.856 1.048-1.128 1.704c-0.256 0.656-0.384 1.384-0.384 2.184 0 0.784 0.128 1.512 0.384 2.184 0.272 0.656 0.64 1.224 1.104 1.704 0.48 0.48 1.040 0.848 1.68 1.104s1.336 0.384 2.088 0.384zM160.611 24.288c-1.296 0-2.504-0.208-3.624-0.624-1.104-0.432-2.064-1.040-2.88-1.824s-1.456-1.704-1.92-2.76c-0.448-1.056-0.672-2.216-0.672-3.48s0.224-2.424 0.672-3.48c0.464-1.056 1.104-1.976 1.92-2.76 0.832-0.784 1.8-1.384 2.904-1.8 1.104-0.432 2.312-0.648 3.624-0.648 1.456 0 2.768 0.256 3.936 0.768 1.184 0.496 2.176 1.232 2.976 2.208l-2.496 2.304c-0.576-0.656-1.216-1.144-1.92-1.464-0.704-0.336-1.472-0.504-2.304-0.504-0.784 0-1.504 0.128-2.16 0.384s-1.224 0.624-1.704 1.104c-0.48 0.48-0.856 1.048-1.128 1.704-0.256 0.656-0.384 1.384-0.384 2.184s0.128 1.528 0.384 2.184c0.272 0.656 0.648 1.224 1.128 1.704s1.048 0.848 1.704 1.104c0.656 0.256 1.376 0.384 2.16 0.384 0.832 0 1.6-0.16 2.304-0.48 0.704-0.336 1.344-0.84 1.92-1.512l2.496 2.304c-0.8 0.976-1.792 1.72-2.976 2.232-1.168 0.512-2.488 0.768-3.96 0.768zM177.26 24.288c-1.328 0-2.56-0.216-3.696-0.648-1.12-0.432-2.096-1.040-2.928-1.824-0.816-0.784-1.456-1.704-1.92-2.76-0.448-1.056-0.672-2.208-0.672-3.456s0.224-2.4 0.672-3.456c0.464-1.056 1.112-1.976 1.944-2.76s1.808-1.392 2.928-1.824c1.12-0.432 2.336-0.648 3.648-0.648 1.328 0 2.544 0.216 3.648 0.648 1.12 0.432 2.088 1.040 2.904 1.824 0.832 0.784 1.48 1.704 1.944 2.76 0.464 1.040 0.696 2.192 0.696 3.456 0 1.248-0.232 2.408-0.696 3.48-0.464 1.056-1.112 1.976-1.944 2.76-0.816 0.768-1.784 1.368-2.904 1.8-1.104 0.432-2.312 0.648-3.624 0.648zM177.236 20.976c0.752 0 1.44-0.128 2.064-0.384 0.64-0.256 1.2-0.624 1.68-1.104s0.848-1.048 1.104-1.704c0.272-0.656 0.408-1.384 0.408-2.184s-0.136-1.528-0.408-2.184c-0.256-0.656-0.624-1.224-1.104-1.704-0.464-0.48-1.016-0.848-1.656-1.104s-1.336-0.384-2.088-0.384c-0.752 0-1.448 0.128-2.088 0.384-0.624 0.256-1.176 0.624-1.656 1.104s-0.856 1.048-1.128 1.704c-0.256 0.656-0.384 1.384-0.384 2.184 0 0.784 0.128 1.512 0.384 2.184 0.272 0.656 0.64 1.224 1.104 1.704 0.48 0.48 1.040 0.848 1.68 1.104s1.336 0.384 2.088 0.384zM188.631 24v-16.8h3.888v13.632h8.424v3.168h-12.312zM200.281 24l7.488-16.8h3.84l7.512 16.8h-4.080l-6.144-14.832h1.536l-6.168 14.832h-3.984zM204.025 20.4l1.032-2.952h8.64l1.056 2.952h-10.728zM222.78 24v-13.632h-5.376v-3.168h14.64v3.168h-5.376v13.632h-3.888zM236.992 13.968h8.088v3.024h-8.088v-3.024zM237.28 20.88h9.144v3.12h-13.008v-16.8h12.696v3.12h-8.832v10.56z"></path>
<path fill="#fcf1e0" d="M257.277 20.076l10.777-17.424 0.64-0.674 8.235 5.491 0.057 3.314 2.009 3.28-8.88 14.077-12.839-8.063z"></path>
<path fill="none" stroke="#fd9222" stroke-linejoin="round" stroke-linecap="round" stroke-miterlimit="4" stroke-width="2.6667" d="M274.968 23.88l-14.185-8.864M264.695 8.599l14.185 8.864M263.963 25.864l11.736-19.25M280.509 14.789c-3.040-1.899-4.233-3.384-2.277-6.592l-9.625-6.015-11.736 19.25 14.185 8.864 9.453-15.507z"></path>
</svg>
