<!-- Generated by IcoMoon.io -->
<svg version="1.1" xmlns="http://www.w3.org/2000/svg" width="47" height="32" viewBox="0 0 47 32">
<title>mastercard</title>
<path fill="#fafafa" d="M4.267 0.533h38.4c2.062 0 3.733 1.671 3.733 3.733v23.467c0 2.062-1.671 3.733-3.733 3.733h-38.4c-2.062 0-3.733-1.671-3.733-3.733v-23.467c0-2.062 1.671-3.733 3.733-3.733z"></path>
<path fill="none" stroke="#fafafa" stroke-linejoin="miter" stroke-linecap="butt" stroke-miterlimit="4" stroke-width="1.0667" d="M4.267 0.533h38.4c2.062 0 3.733 1.671 3.733 3.733v23.467c0 2.062-1.671 3.733-3.733 3.733h-38.4c-2.062 0-3.733-1.671-3.733-3.733v-23.467c0-2.062 1.671-3.733 3.733-3.733z"></path>
<path fill="#ed0006" d="M23.467 23.29c-1.704 1.462-3.915 2.345-6.331 2.345-5.39 0-9.76-4.396-9.76-9.818s4.37-9.818 9.76-9.818c2.416 0 4.627 0.883 6.331 2.345 1.704-1.462 3.915-2.345 6.331-2.345 5.391 0 9.76 4.395 9.76 9.818s-4.37 9.818-9.76 9.818c-2.416 0-4.627-0.883-6.331-2.345z"></path>
<path fill="#f9a000" d="M23.467 23.29c2.099-1.801 3.429-4.48 3.429-7.472s-1.331-5.672-3.429-7.472c1.704-1.462 3.915-2.345 6.331-2.345 5.391 0 9.76 4.395 9.76 9.818s-4.37 9.818-9.76 9.818c-2.416 0-4.627-0.883-6.331-2.345z"></path>
<path fill="#ff5e00" d="M23.467 23.29c2.099-1.801 3.429-4.48 3.429-7.472s-1.331-5.672-3.429-7.472c-2.099 1.801-3.429 4.48-3.429 7.472s1.331 5.672 3.429 7.472z"></path>
</svg>
