<!-- Generated by IcoMoon.io -->
<svg version="1.1" xmlns="http://www.w3.org/2000/svg" width="32" height="32" viewBox="0 0 32 32">
<title>scroll-down</title>
<path fill="#fff" d="M16 32c8.837 0 16-7.163 16-16s-7.163-16-16-16c-8.837 0-16 7.163-16 16s7.163 16 16 16z"></path>
<path fill="#fd9222" d="M16.548 17.081c-0.072 0.072-0.157 0.13-0.251 0.169s-0.195 0.059-0.297 0.059-0.203-0.020-0.297-0.059c-0.094-0.039-0.179-0.097-0.251-0.169l-3.536-3.543c-0.072-0.072-0.157-0.13-0.251-0.169s-0.195-0.059-0.297-0.059-0.203 0.020-0.297 0.059c-0.094 0.039-0.179 0.097-0.251 0.169-0.144 0.145-0.225 0.34-0.225 0.544s0.081 0.4 0.225 0.544l3.543 3.543c0.434 0.434 1.023 0.677 1.636 0.677s1.202-0.244 1.637-0.677l3.543-3.543c0.143-0.144 0.223-0.338 0.224-0.54 0.001-0.102-0.019-0.202-0.057-0.296s-0.095-0.18-0.167-0.252c-0.072-0.072-0.157-0.13-0.251-0.169s-0.195-0.059-0.297-0.059-0.203 0.020-0.297 0.059c-0.094 0.039-0.179 0.097-0.251 0.169l-3.535 3.543z"></path>
</svg>
